<?xml version="1.0" standalone="no"?>
<!DOCTYPE svg PUBLIC "-//W3C//DTD SVG 20010904//EN"
 "http://www.w3.org/TR/2001/REC-SVG-20010904/DTD/svg10.dtd">
<svg version="1.0" xmlns="http://www.w3.org/2000/svg"
 width="1080.000000pt" height="810.000000pt" viewBox="0 0 1080.000000 810.000000"
 preserveAspectRatio="xMidYMid meet">
<metadata>
Created by potrace 1.16, written by Peter Selinger 2001-2019
</metadata>
<g transform="translate(0.000000,810.000000) scale(0.100000,-0.100000)"
fill="#000000" stroke="none">
<path d="M3553 6294 c-3 -10 -3 -597 1 -1307 6 -1227 11 -1422 36 -1452 5 -6
12 -34 16 -63 3 -28 10 -52 15 -52 5 0 8 -3 7 -7 -2 -11 22 -96 31 -108 4 -5
13 -29 20 -52 6 -24 15 -43 20 -43 4 0 13 -18 20 -40 6 -22 15 -40 20 -40 4 0
13 -18 20 -40 6 -22 15 -40 20 -40 4 0 13 -16 21 -35 8 -19 16 -35 19 -35 4 0
12 -12 19 -27 6 -16 26 -43 42 -62 17 -18 30 -38 30 -42 0 -5 16 -25 35 -45
19 -19 35 -40 35 -44 0 -12 35 -51 141 -158 92 -94 121 -120 214 -194 33 -26
67 -54 76 -63 9 -8 21 -15 28 -15 6 0 14 -7 17 -15 4 -8 12 -15 18 -15 7 0 21
-8 32 -18 25 -23 124 -88 157 -103 15 -7 27 -15 27 -19 0 -3 16 -12 35 -20 19
-8 35 -16 35 -20 0 -3 16 -12 35 -19 19 -7 35 -16 35 -21 0 -5 18 -15 40 -21
22 -7 40 -16 40 -20 0 -4 62 -38 138 -75 75 -38 139 -72 140 -76 2 -4 9 -8 16
-8 6 0 47 -18 91 -40 76 -38 125 -50 125 -31 0 5 16 12 35 15 19 4 40 13 47
20 8 7 29 18 49 25 19 6 70 29 114 51 44 22 85 40 91 40 7 0 14 3 16 8 2 4 47
29 101 57 53 27 97 53 97 56 0 4 14 10 31 14 17 4 33 13 35 20 3 6 23 18 45
25 21 7 39 17 39 21 0 5 15 16 33 24 60 29 87 46 87 56 0 5 5 9 12 9 6 0 26
11 44 25 18 14 37 25 42 25 6 0 12 3 14 8 4 9 85 72 92 72 3 0 15 8 26 17 10
10 41 36 67 58 61 52 216 207 268 268 22 26 48 57 58 67 9 11 17 23 17 26 0 3
10 19 23 34 12 15 28 36 34 46 7 10 26 39 43 64 16 25 30 51 30 58 0 6 4 12 8
12 5 0 14 16 22 35 8 19 17 35 20 35 4 0 13 18 20 40 7 22 16 40 20 40 4 0 13
25 20 55 7 30 17 55 21 55 7 0 31 87 29 104 -1 5 3 12 8 15 5 3 14 26 20 51 6
25 16 63 21 85 22 83 31 524 31 1621 l0 1132 -22 6 c-13 3 -843 6 -1846 6
-1683 0 -1823 -1 -1829 -16z m3417 -1341 c-1 -1012 -8 -1369 -27 -1382 -5 -3
-15 -39 -22 -78 -7 -40 -17 -73 -21 -73 -5 0 -12 -16 -16 -35 -3 -19 -12 -39
-20 -46 -8 -6 -14 -16 -14 -22 0 -14 -52 -119 -67 -135 -7 -7 -13 -19 -13 -26
0 -7 -9 -23 -20 -36 -11 -13 -20 -27 -20 -32 0 -5 -11 -24 -25 -42 -14 -18
-25 -36 -25 -39 0 -4 -7 -15 -15 -24 -73 -83 -95 -109 -95 -114 0 -9 -170
-179 -179 -179 -4 0 -23 -15 -43 -32 -75 -68 -101 -88 -110 -88 -5 0 -11 -6
-14 -13 -3 -8 -20 -20 -39 -27 -19 -8 -35 -18 -35 -22 0 -5 -11 -13 -25 -18
-14 -5 -25 -13 -25 -18 0 -4 -16 -14 -35 -22 -19 -8 -35 -16 -35 -19 0 -4 -15
-12 -32 -20 -18 -8 -35 -17 -38 -20 -6 -7 -37 -25 -120 -69 -35 -19 -70 -41
-77 -48 -7 -7 -26 -15 -43 -19 -16 -4 -30 -10 -30 -14 0 -4 -18 -14 -40 -21
-22 -7 -40 -16 -40 -20 0 -4 -18 -13 -40 -20 -22 -7 -40 -16 -40 -20 0 -3 -17
-12 -37 -19 -21 -8 -41 -19 -45 -25 -9 -14 -87 -14 -96 0 -4 6 -24 17 -44 25
-21 7 -38 16 -38 19 0 4 -18 13 -40 20 -22 7 -40 16 -40 20 0 4 -18 12 -40 19
-22 6 -40 15 -40 20 0 4 -18 13 -40 20 -22 6 -40 16 -40 20 0 5 -8 11 -17 15
-10 3 -40 19 -68 35 -27 17 -61 36 -75 43 -14 7 -31 18 -38 25 -7 7 -24 16
-38 19 -13 3 -24 10 -24 15 0 5 -11 14 -25 19 -14 5 -25 13 -25 18 0 4 -16 14
-35 22 -19 8 -35 18 -35 22 0 5 -8 11 -17 15 -10 3 -25 12 -33 20 -8 8 -40 33
-70 56 -99 77 -310 274 -310 290 0 4 -13 21 -30 37 -16 16 -30 34 -30 39 0 5
-8 16 -19 23 -16 12 -27 29 -69 104 -7 13 -17 24 -22 24 -5 0 -11 14 -15 31
-4 17 -13 33 -20 35 -6 3 -18 23 -25 45 -7 21 -17 39 -21 39 -5 0 -11 16 -15
35 -3 19 -10 35 -14 35 -4 0 -13 23 -20 50 -7 28 -16 52 -20 55 -4 3 -13 35
-20 72 -7 38 -17 73 -21 79 -22 27 -29 367 -29 1357 l0 1057 1570 0 1570 0 0
-1057z"/>
<path d="M4413 5535 l-23 -16 0 -974 c0 -535 3 -980 6 -989 5 -13 27 -16 135
-16 120 0 129 1 129 19 0 11 4 21 10 23 6 2 10 260 10 730 0 722 1 728 20 716
11 -7 20 -16 20 -19 0 -4 19 -28 43 -54 23 -26 49 -56 57 -67 8 -11 35 -42 60
-68 55 -59 140 -154 176 -198 14 -18 42 -50 60 -70 19 -20 56 -62 83 -92 28
-30 70 -77 95 -104 25 -27 46 -52 46 -55 0 -3 28 -36 63 -72 140 -150 167
-179 167 -186 0 -3 25 -31 55 -60 30 -30 55 -58 55 -62 0 -5 12 -20 26 -34 14
-14 23 -30 20 -35 -3 -5 -29 -12 -57 -15 -29 -4 -55 -10 -58 -15 -3 -5 -23
-15 -43 -23 -21 -7 -38 -17 -38 -21 0 -5 -8 -12 -18 -16 -36 -14 -121 -88
-133 -114 -6 -16 -14 -28 -18 -28 -4 0 -20 -25 -35 -56 -24 -47 -30 -73 -34
-149 -5 -109 5 -220 22 -238 7 -6 17 -27 24 -44 6 -18 16 -38 22 -45 5 -7 24
-30 40 -52 33 -42 98 -95 118 -96 6 0 12 -4 12 -8 0 -4 17 -14 38 -21 20 -8
40 -18 44 -24 16 -25 301 -24 317 2 3 5 21 12 38 16 18 3 36 12 40 18 5 7 22
19 38 27 42 21 143 124 151 154 3 13 12 27 19 30 7 2 16 20 20 38 4 18 11 35
16 38 5 3 14 41 21 83 9 60 9 94 0 155 -7 42 -17 79 -22 80 -6 2 -10 10 -10
18 0 11 16 14 64 14 36 0 68 -4 71 -10 3 -5 31 -10 61 -10 30 0 54 5 54 10 0
6 11 10 25 10 l25 0 0 145 0 145 -30 0 c-16 0 -30 5 -30 10 0 6 -65 10 -175
10 -110 0 -175 -4 -175 -10 0 -5 -8 -10 -19 -10 -16 0 -19 11 -25 92 -3 50 -6
430 -6 845 0 595 -3 753 -12 754 -92 4 -241 3 -248 -1 -5 -3 -10 -284 -12
-657 -3 -580 -8 -705 -26 -654 -3 8 -21 31 -41 51 -20 20 -48 53 -63 72 -34
45 -108 118 -120 118 -4 0 -8 6 -8 14 0 8 -20 34 -45 59 -25 26 -45 50 -45 54
0 5 -15 22 -32 38 -18 17 -45 46 -59 65 -15 19 -45 53 -68 75 -22 22 -41 43
-41 48 0 4 -22 30 -50 57 -27 27 -50 54 -50 59 0 6 -8 16 -18 23 -9 7 -40 40
-67 73 -28 32 -65 73 -82 90 -18 16 -33 34 -33 40 0 5 -18 26 -40 45 -22 19
-40 40 -40 47 0 7 -6 16 -12 20 -7 4 -30 28 -52 53 -74 86 -121 140 -155 178
l-33 37 -97 3 c-76 3 -101 0 -118 -13z m1457 -1985 c0 -5 12 -10 28 -10 15 0
32 -4 37 -8 14 -10 35 -59 35 -82 0 -11 5 -20 10 -20 18 0 12 -123 -8 -161
-17 -34 -56 -79 -68 -79 -3 0 -19 -10 -36 -21 -24 -17 -43 -21 -100 -21 -39 1
-74 5 -77 9 -3 4 -18 14 -34 22 -15 8 -39 30 -54 50 -23 29 -27 47 -31 116
l-4 82 50 50 c29 29 64 54 81 58 17 4 33 11 36 16 8 12 135 12 135 -1z"/>
</g>
</svg>
