<svg viewBox="0 0 85 95" width="128" height="145" fill="white" xmlns="http://www.w3.org/2000/svg">
  <path d="M49.400192 5 C35.400192 15 29.400192 30 29.400192 50 V59 H69.400192 V50 C69.400192 30 63.400192 15 49.400192 5 Z"/>
  <path d="M29.41 58.889 V71.889 C29.41 75.189 32.11 77.889 35.41 77.889 C38.71 77.889 41.41 75.189 41.41 71.889 V58.889 Z"/>
  <path d="M43.400192 58.9 V71.9 C43.400192 75.2 46.100193 77.9 49.400192 77.9 C52.700192 77.9 55.400192 75.2 55.400192 71.9 V58.9 Z"/>
  <path d="M57.343 58.9 V71.9 C57.343 75.2 60.043 77.9 63.343 77.9 C66.643 77.9 69.343 75.2 69.343 71.9 V58.9 Z"/>
  <circle cx="37.400188" cy="40" r="5" fill="#000"/>
  <circle cx="61.400173" cy="40" r="5" fill="#000"/>
  <rect x="29.237947" y="49.611198" width="40.279938" height="1.2441679" fill="#000"/>
  <path d="M49.278653 50.208145 L47.378408 61.280031 L49.246036 63.768367 L51.087923 61.312307 Z" fill="#000"/>
</svg>
